<svg width="160" height="50" viewBox="0 0 160 50" fill="none" xmlns="http://www.w3.org/2000/svg">
<path d="M54 44.4617V36.7617H56.651C57.2597 36.7617 57.7583 36.8644 58.147 37.0697C58.543 37.275 58.8363 37.5537 59.027 37.9057C59.2177 38.2504 59.313 38.6354 59.313 39.0607C59.313 39.5374 59.1847 39.97 58.928 40.3587C58.6787 40.7474 58.2863 41.026 57.751 41.1947L59.39 44.4617H58.037L56.541 41.3597H55.166V44.4617H54ZM55.166 40.4797H56.585C57.113 40.4797 57.498 40.3514 57.74 40.0947C57.9893 39.838 58.114 39.5044 58.114 39.0937C58.114 38.683 57.993 38.3567 57.751 38.1147C57.509 37.8654 57.1167 37.7407 56.574 37.7407H55.166V40.4797Z" fill="#E4C590"/>
<path d="M64.6523 44.4617V36.7617H69.5473V37.7077H65.8183V40.1057H69.2173V41.0297H65.8183V43.5157H69.5473V44.4617H64.6523Z" fill="#E4C590"/>
<path d="M77.4369 44.5929C76.8722 44.5929 76.3772 44.4939 75.9519 44.2959C75.5265 44.0979 75.1929 43.8156 74.9509 43.4489C74.7162 43.0822 74.5952 42.6459 74.5879 42.1399H75.8199C75.8272 42.5506 75.9702 42.8989 76.2489 43.1849C76.5275 43.4709 76.9199 43.6139 77.4259 43.6139C77.8732 43.6139 78.2215 43.5076 78.4709 43.2949C78.7275 43.0749 78.8559 42.7962 78.8559 42.4589C78.8559 42.1876 78.7935 41.9676 78.6689 41.7989C78.5515 41.6302 78.3865 41.4909 78.1739 41.3809C77.9685 41.2709 77.7302 41.1719 77.4589 41.0839C77.1875 40.9959 76.9015 40.9006 76.6009 40.7979C76.0069 40.5999 75.5595 40.3432 75.2589 40.0279C74.9655 39.7126 74.8189 39.2982 74.8189 38.7849C74.8115 38.3522 74.9105 37.9746 75.1159 37.6519C75.3285 37.3292 75.6219 37.0799 75.9959 36.9039C76.3772 36.7206 76.8209 36.6289 77.3269 36.6289C77.8255 36.6289 78.2619 36.7206 78.6359 36.9039C79.0172 37.0872 79.3142 37.3439 79.5269 37.6739C79.7395 37.9966 79.8495 38.3742 79.8569 38.8069H78.6249C78.6249 38.6089 78.5735 38.4219 78.4709 38.2459C78.3682 38.0626 78.2179 37.9122 78.0199 37.7949C77.8219 37.6776 77.5799 37.6189 77.2939 37.6189C76.9272 37.6116 76.6229 37.7032 76.3809 37.8939C76.1462 38.0846 76.0289 38.3486 76.0289 38.6859C76.0289 38.9866 76.1169 39.2176 76.2929 39.3789C76.4689 39.5402 76.7109 39.6759 77.0189 39.7859C77.3269 39.8886 77.6789 40.0096 78.0749 40.1489C78.4562 40.2736 78.7972 40.4239 79.0979 40.5999C79.3985 40.7759 79.6369 41.0069 79.8129 41.2929C79.9962 41.5789 80.0879 41.9419 80.0879 42.3819C80.0879 42.7706 79.9889 43.1336 79.7909 43.4709C79.5929 43.8009 79.2959 44.0722 78.8999 44.2849C78.5039 44.4902 78.0162 44.5929 77.4369 44.5929Z" fill="#E4C590"/>
<path d="M86.9879 44.4617V37.7077H84.7109V36.7617H90.4199V37.7077H88.1539V44.4617H86.9879Z" fill="#E4C590"/>
<path d="M94.1387 44.4617L96.9767 36.7617H98.2527L101.069 44.4617H99.8367L99.1767 42.5807H96.0307L95.3707 44.4617H94.1387ZM96.3607 41.6567H98.8467L97.6037 38.1477L96.3607 41.6567Z" fill="#E4C590"/>
<path d="M108.652 44.5937C108.102 44.5937 107.603 44.4874 107.156 44.2747C106.716 44.0547 106.364 43.721 106.1 43.2737C105.843 42.8264 105.715 42.258 105.715 41.5687V36.7617H106.881V41.5797C106.881 42.2544 107.042 42.7494 107.365 43.0647C107.687 43.38 108.124 43.5377 108.674 43.5377C109.216 43.5377 109.649 43.38 109.972 43.0647C110.294 42.7494 110.456 42.2544 110.456 41.5797V36.7617H111.622V41.5687C111.622 42.258 111.486 42.8264 111.215 43.2737C110.951 43.721 110.591 44.0547 110.137 44.2747C109.689 44.4874 109.194 44.5937 108.652 44.5937Z" fill="#E4C590"/>
<path d="M117.076 44.4617V36.7617H119.727C120.336 36.7617 120.835 36.8644 121.223 37.0697C121.619 37.275 121.913 37.5537 122.103 37.9057C122.294 38.2504 122.389 38.6354 122.389 39.0607C122.389 39.5374 122.261 39.97 122.004 40.3587C121.755 40.7474 121.363 41.026 120.827 41.1947L122.466 44.4617H121.113L119.617 41.3597H118.242V44.4617H117.076ZM118.242 40.4797H119.661C120.189 40.4797 120.574 40.3514 120.816 40.0947C121.066 39.838 121.19 39.5044 121.19 39.0937C121.19 38.683 121.069 38.3567 120.827 38.1147C120.585 37.8654 120.193 37.7407 119.65 37.7407H118.242V40.4797Z" fill="#E4C590"/>
<path d="M127.234 44.4617L130.072 36.7617H131.348L134.164 44.4617H132.932L132.272 42.5807H129.126L128.466 44.4617H127.234ZM129.456 41.6567H131.942L130.699 38.1477L129.456 41.6567Z" fill="#E4C590"/>
<path d="M139.197 44.4617V36.7617H140.363L144.224 42.5587V36.7617H145.39V44.4617H144.224L140.363 38.6647V44.4617H139.197Z" fill="#E4C590"/>
<path d="M152.716 44.4617V37.7077H150.439V36.7617H156.148V37.7077H153.882V44.4617H152.716Z" fill="#E4C590"/>
<path fill-rule="evenodd" clip-rule="evenodd" d="M32.5132 42.597C29.684 44.1297 26.4436 45 23 45C11.9543 45 3 36.0457 3 25C3 13.9543 11.9543 5 23 5C26.0521 5 28.9446 5.68368 31.5326 6.90625C31.3663 7.11885 31.209 7.34319 31.0619 7.57929C30.37 8.68974 29.8253 10.0318 29.47 11.4633C27.5111 10.5253 25.3169 10 23 10C14.7157 10 8 16.7157 8 25C8 33.2843 14.7157 40 23 40C27.2915 40 31.162 38.1978 33.8961 35.309C33.5961 36.4152 33.1892 37.6031 32.6373 38.9318C32.2262 39.809 32.1122 40.4488 32.1122 41.4602C32.1122 41.8663 32.2596 42.247 32.5132 42.597ZM29.0138 14.6134C28.8567 18.2765 30.0306 21.8663 33.1625 23.2555C34.135 24.128 34.7379 25.2124 34.7379 26.6199C34.7379 26.9224 34.7379 27.2186 34.7371 27.5099C33.5832 32.9324 28.7666 37 23 37C16.3726 37 11 31.6274 11 25C11 18.3726 16.3726 13 23 13C25.1914 13 27.2456 13.5874 29.0138 14.6134Z" fill="#E4C590"/>
<path d="M41.7607 22.8781C46.7982 20.5576 46.5779 13.151 43.8104 8.53905C40.9996 3.85445 36.7943 3.78631 33.9427 8.53905C31.1901 13.126 30.9363 20.5491 35.9923 22.8781C36.9183 23.7408 37.6263 25.4349 37.6263 26.8266C37.6263 31.0162 37.8838 34.3087 35.7001 39.1394C35.3086 40.0068 35.1257 40.6631 35.1257 41.2062C35.1257 43.2981 36.8081 45 38.8765 45C40.9449 45 42.6273 43.2981 42.6273 41.2062C42.6273 40.6631 42.4445 40.0068 42.053 39.1394C39.8389 34.2417 40.1268 30.7222 40.1268 26.8266C40.1268 25.4349 40.8348 23.7408 41.7607 22.8781Z" fill="#E4C590"/>
<path d="M62.6739 16.6614C62.5493 16.2282 62.3742 15.8454 62.1487 15.513C61.9232 15.1747 61.6472 14.8899 61.3208 14.6584C61.0003 14.421 60.6323 14.24 60.2169 14.1154C59.8074 13.9907 59.3534 13.9284 58.8548 13.9284C57.9231 13.9284 57.1041 14.1599 56.3978 14.6228C55.6975 15.0857 55.1515 15.7593 54.7598 16.6436C54.3681 17.522 54.1722 18.5962 54.1722 19.8662C54.1722 21.1363 54.3651 22.2164 54.7509 23.1067C55.1367 23.9969 55.6827 24.6765 56.3889 25.1453C57.0952 25.6082 57.929 25.8397 58.8905 25.8397C59.7629 25.8397 60.5077 25.6854 61.1249 25.3768C61.7481 25.0622 62.2229 24.6201 62.5493 24.0503C62.8817 23.4806 63.0478 22.807 63.0478 22.0295L63.8312 22.1452H59.1308V19.2431H66.7601V21.5399C66.7601 23.1423 66.4218 24.5192 65.7452 25.6705C65.0686 26.816 64.1369 27.7003 62.9499 28.3234C61.7629 28.9407 60.4038 29.2493 58.8726 29.2493C57.1634 29.2493 55.6619 28.8724 54.3681 28.1187C53.0743 27.359 52.0654 26.2818 51.3413 24.8871C50.6232 23.4865 50.2641 21.8247 50.2641 19.9019C50.2641 18.4241 50.4778 17.1065 50.9051 15.9492C51.3383 14.786 51.9437 13.8008 52.7212 12.9937C53.4986 12.1865 54.4037 11.5723 55.4364 11.1509C56.469 10.7295 57.5878 10.5188 58.7925 10.5188C59.8252 10.5188 60.7866 10.6702 61.6769 10.9728C62.5671 11.2696 63.3564 11.691 64.0449 12.237C64.7393 12.783 65.306 13.4328 65.7452 14.1866C66.1844 14.9344 66.4663 15.7593 66.5909 16.6614H62.6739ZM71.4829 29H67.3523L73.6462 10.7681H78.6137L84.8987 29H80.768L76.2012 14.9344H76.0587L71.4829 29ZM71.2248 21.8336H80.9817V24.8426H71.2248V21.8336ZM97.6025 10.7681H101.457V22.6081C101.457 23.9376 101.14 25.1008 100.505 26.0979C99.8755 27.0949 98.9942 27.8724 97.8606 28.4303C96.7271 28.9822 95.4066 29.2582 93.8991 29.2582C92.3857 29.2582 91.0622 28.9822 89.9287 28.4303C88.7951 27.8724 87.9138 27.0949 87.2847 26.0979C86.6556 25.1008 86.341 23.9376 86.341 22.6081V10.7681H90.1957V22.2788C90.1957 22.9731 90.3471 23.5904 90.6498 24.1304C90.9584 24.6705 91.3916 25.0949 91.9495 25.4035C92.5074 25.7121 93.1572 25.8664 93.8991 25.8664C94.6469 25.8664 95.2968 25.7121 95.8487 25.4035C96.4066 25.0949 96.8369 24.6705 97.1395 24.1304C97.4481 23.5904 97.6025 22.9731 97.6025 22.2788V10.7681ZM103.877 29V10.7681H111.07C112.446 10.7681 113.622 11.0144 114.595 11.507C115.574 11.9936 116.319 12.6851 116.829 13.5812C117.346 14.4714 117.604 15.519 117.604 16.7237C117.604 17.9344 117.343 18.976 116.82 19.8484C116.298 20.7149 115.542 21.3796 114.55 21.8426C113.565 22.3055 112.372 22.5369 110.972 22.5369H106.156V19.4389H110.348C111.084 19.4389 111.696 19.338 112.182 19.1363C112.669 18.9345 113.031 18.6318 113.268 18.2282C113.512 17.8246 113.633 17.3232 113.633 16.7237C113.633 16.1184 113.512 15.608 113.268 15.1925C113.031 14.7771 112.666 14.4625 112.173 14.2489C111.687 14.0293 111.073 13.9195 110.331 13.9195H107.731V29H103.877ZM113.722 20.7031L118.254 29H113.998L109.565 20.7031H113.722ZM123.431 10.7681V29H119.576V10.7681H123.431ZM125.156 13.9462V10.7681H140.129V13.9462H134.548V29H130.737V13.9462H125.156ZM142.758 29H138.627L144.921 10.7681H149.889L156.174 29H152.043L147.476 14.9344H147.334L142.758 29ZM142.5 21.8336H152.257V24.8426H142.5V21.8336Z" fill="white"/>
</svg>
