<svg width="160" height="50" viewBox="0 0 160 50" fill="none" xmlns="http://www.w3.org/2000/svg">
<path d="M54 44.4617V36.7617H56.651C57.2597 36.7617 57.7583 36.8644 58.147 37.0697C58.543 37.275 58.8363 37.5537 59.027 37.9057C59.2177 38.2504 59.313 38.6354 59.313 39.0607C59.313 39.5374 59.1847 39.97 58.928 40.3587C58.6787 40.7474 58.2863 41.026 57.751 41.1947L59.39 44.4617H58.037L56.541 41.3597H55.166V44.4617H54ZM55.166 40.4797H56.585C57.113 40.4797 57.498 40.3514 57.74 40.0947C57.9893 39.838 58.114 39.5044 58.114 39.0937C58.114 38.683 57.993 38.3567 57.751 38.1147C57.509 37.8654 57.1167 37.7407 56.574 37.7407H55.166V40.4797Z" fill="#E4C590"/>
<path d="M64.6523 44.4617V36.7617H69.5473V37.7077H65.8183V40.1057H69.2173V41.0297H65.8183V43.5157H69.5473V44.4617H64.6523Z" fill="#E4C590"/>
<path d="M77.4369 44.5929C76.8722 44.5929 76.3772 44.4939 75.9519 44.2959C75.5265 44.0979 75.1929 43.8156 74.9509 43.4489C74.7162 43.0822 74.5952 42.6459 74.5879 42.1399H75.8199C75.8272 42.5506 75.9702 42.8989 76.2489 43.1849C76.5275 43.4709 76.9199 43.6139 77.4259 43.6139C77.8732 43.6139 78.2215 43.5076 78.4709 43.2949C78.7275 43.0749 78.8559 42.7962 78.8559 42.4589C78.8559 42.1876 78.7935 41.9676 78.6689 41.7989C78.5515 41.6302 78.3865 41.4909 78.1739 41.3809C77.9685 41.2709 77.7302 41.1719 77.4589 41.0839C77.1875 40.9959 76.9015 40.9006 76.6009 40.7979C76.0069 40.5999 75.5595 40.3432 75.2589 40.0279C74.9655 39.7126 74.8189 39.2982 74.8189 38.7849C74.8115 38.3522 74.9105 37.9746 75.1159 37.6519C75.3285 37.3292 75.6219 37.0799 75.9959 36.9039C76.3772 36.7206 76.8209 36.6289 77.3269 36.6289C77.8255 36.6289 78.2619 36.7206 78.6359 36.9039C79.0172 37.0872 79.3142 37.3439 79.5269 37.6739C79.7395 37.9966 79.8495 38.3742 79.8569 38.8069H78.6249C78.6249 38.6089 78.5735 38.4219 78.4709 38.2459C78.3682 38.0626 78.2179 37.9122 78.0199 37.7949C77.8219 37.6776 77.5799 37.6189 77.2939 37.6189C76.9272 37.6116 76.6229 37.7032 76.3809 37.8939C76.1462 38.0846 76.0289 38.3486 76.0289 38.6859C76.0289 38.9866 76.1169 39.2176 76.2929 39.3789C76.4689 39.5402 76.7109 39.6759 77.0189 39.7859C77.3269 39.8886 77.6789 40.0096 78.0749 40.1489C78.4562 40.2736 78.7972 40.4239 79.0979 40.5999C79.3985 40.7759 79.6369 41.0069 79.8129 41.2929C79.9962 41.5789 80.0879 41.9419 80.0879 42.3819C80.0879 42.7706 79.9889 43.1336 79.7909 43.4709C79.5929 43.8009 79.2959 44.0722 78.8999 44.2849C78.5039 44.4902 78.0162 44.5929 77.4369 44.5929Z" fill="#E4C590"/>
<path d="M86.9879 44.4617V37.7077H84.7109V36.7617H90.4199V37.7077H88.1539V44.4617H86.9879Z" fill="#E4C590"/>
<path d="M94.1387 44.4617L96.9767 36.7617H98.2527L101.069 44.4617H99.8367L99.1767 42.5807H96.0307L95.3707 44.4617H94.1387ZM96.3607 41.6567H98.8467L97.6037 38.1477L96.3607 41.6567Z" fill="#E4C590"/>
<path d="M108.652 44.5937C108.102 44.5937 107.603 44.4874 107.156 44.2747C106.716 44.0547 106.364 43.721 106.1 43.2737C105.843 42.8264 105.715 42.258 105.715 41.5687V36.7617H106.881V41.5797C106.881 42.2544 107.042 42.7494 107.365 43.0647C107.687 43.38 108.124 43.5377 108.674 43.5377C109.216 43.5377 109.649 43.38 109.972 43.0647C110.294 42.7494 110.456 42.2544 110.456 41.5797V36.7617H111.622V41.5687C111.622 42.258 111.486 42.8264 111.215 43.2737C110.951 43.721 110.591 44.0547 110.137 44.2747C109.689 44.4874 109.194 44.5937 108.652 44.5937Z" fill="#E4C590"/>
<path d="M117.076 44.4617V36.7617H119.727C120.336 36.7617 120.835 36.8644 121.223 37.0697C121.619 37.275 121.913 37.5537 122.103 37.9057C122.294 38.2504 122.389 38.6354 122.389 39.0607C122.389 39.5374 122.261 39.97 122.004 40.3587C121.755 40.7474 121.363 41.026 120.827 41.1947L122.466 44.4617H121.113L119.617 41.3597H118.242V44.4617H117.076ZM118.242 40.4797H119.661C120.189 40.4797 120.574 40.3514 120.816 40.0947C121.066 39.838 121.19 39.5044 121.19 39.0937C121.19 38.683 121.069 38.3567 120.827 38.1147C120.585 37.8654 120.193 37.7407 119.65 37.7407H118.242V40.4797Z" fill="#E4C590"/>
<path d="M127.234 44.4617L130.072 36.7617H131.348L134.164 44.4617H132.932L132.272 42.5807H129.126L128.466 44.4617H127.234ZM129.456 41.6567H131.942L130.699 38.1477L129.456 41.6567Z" fill="#E4C590"/>
<path d="M139.197 44.4617V36.7617H140.363L144.224 42.5587V36.7617H145.39V44.4617H144.224L140.363 38.6647V44.4617H139.197Z" fill="#E4C590"/>
<path d="M152.716 44.4617V37.7077H150.439V36.7617H156.148V37.7077H153.882V44.4617H152.716Z" fill="#E4C590"/>
<path fill-rule="evenodd" clip-rule="evenodd" d="M32.5132 42.597C29.684 44.1297 26.4436 45 23 45C11.9543 45 3 36.0457 3 25C3 13.9543 11.9543 5 23 5C26.0521 5 28.9446 5.68368 31.5326 6.90625C31.3663 7.11885 31.209 7.34319 31.0619 7.57929C30.37 8.68974 29.8253 10.0318 29.47 11.4633C27.5111 10.5253 25.3169 10 23 10C14.7157 10 8 16.7157 8 25C8 33.2843 14.7157 40 23 40C27.2915 40 31.162 38.1978 33.8961 35.309C33.5961 36.4152 33.1892 37.6031 32.6373 38.9318C32.2262 39.809 32.1122 40.4488 32.1122 41.4602C32.1122 41.8663 32.2596 42.247 32.5132 42.597ZM29.0138 14.6134C28.8567 18.2765 30.0306 21.8663 33.1625 23.2555C34.135 24.128 34.7379 25.2124 34.7379 26.6199C34.7379 26.9224 34.7379 27.2186 34.7371 27.5099C33.5832 32.9324 28.7666 37 23 37C16.3726 37 11 31.6274 11 25C11 18.3726 16.3726 13 23 13C25.1914 13 27.2456 13.5874 29.0138 14.6134Z" fill="#E4C590"/>
<path d="M41.7607 22.8781C46.7982 20.5576 46.5779 13.151 43.8104 8.53905C40.9996 3.85445 36.7943 3.78631 33.9427 8.53905C31.1901 13.126 30.9363 20.5491 35.9923 22.8781C36.9183 23.7408 37.6263 25.4349 37.6263 26.8266C37.6263 31.0162 37.8838 34.3087 35.7001 39.1394C35.3086 40.0068 35.1257 40.6631 35.1257 41.2062C35.1257 43.2981 36.8081 45 38.8765 45C40.9449 45 42.6273 43.2981 42.6273 41.2062C42.6273 40.6631 42.4445 40.0068 42.053 39.1394C39.8389 34.2417 40.1268 30.7222 40.1268 26.8266C40.1268 25.4349 40.8348 23.7408 41.7607 22.8781Z" fill="#E4C590"/>
<path d="M51.1378 32V18.9091H59.8054V21.1911H53.9055V24.3104H59.2301V26.5923H53.9055V32H51.1378ZM73.1569 25.4545C73.1569 26.8821 72.8863 28.0966 72.3451 29.098C71.8082 30.0994 71.0752 30.8643 70.1463 31.3928C69.2215 31.9169 68.1818 32.179 67.0269 32.179C65.8636 32.179 64.8196 31.9148 63.8948 31.3864C62.9701 30.858 62.2393 30.093 61.7024 29.0916C61.1654 28.0902 60.897 26.8778 60.897 25.4545C60.897 24.027 61.1654 22.8125 61.7024 21.8111C62.2393 20.8097 62.9701 20.0469 63.8948 19.5227C64.8196 18.9943 65.8636 18.7301 67.0269 18.7301C68.1818 18.7301 69.2215 18.9943 70.1463 19.5227C71.0752 20.0469 71.8082 20.8097 72.3451 21.8111C72.8863 22.8125 73.1569 24.027 73.1569 25.4545ZM70.3508 25.4545C70.3508 24.5298 70.2123 23.75 69.9353 23.1151C69.6626 22.4801 69.2769 21.9986 68.7784 21.6705C68.2798 21.3423 67.696 21.1783 67.0269 21.1783C66.3579 21.1783 65.7741 21.3423 65.2755 21.6705C64.7769 21.9986 64.3892 22.4801 64.1122 23.1151C63.8394 23.75 63.7031 24.5298 63.7031 25.4545C63.7031 26.3793 63.8394 27.1591 64.1122 27.794C64.3892 28.429 64.7769 28.9105 65.2755 29.2386C65.7741 29.5668 66.3579 29.7308 67.0269 29.7308C67.696 29.7308 68.2798 29.5668 68.7784 29.2386C69.2769 28.9105 69.6626 28.429 69.9353 27.794C70.2123 27.1591 70.3508 26.3793 70.3508 25.4545ZM86.697 25.4545C86.697 26.8821 86.4264 28.0966 85.8852 29.098C85.3483 30.0994 84.6153 30.8643 83.6863 31.3928C82.7616 31.9169 81.7218 32.179 80.567 32.179C79.4037 32.179 78.3596 31.9148 77.4349 31.3864C76.5102 30.858 75.7794 30.093 75.2424 29.0916C74.7055 28.0902 74.437 26.8778 74.437 25.4545C74.437 24.027 74.7055 22.8125 75.2424 21.8111C75.7794 20.8097 76.5102 20.0469 77.4349 19.5227C78.3596 18.9943 79.4037 18.7301 80.567 18.7301C81.7218 18.7301 82.7616 18.9943 83.6863 19.5227C84.6153 20.0469 85.3483 20.8097 85.8852 21.8111C86.4264 22.8125 86.697 24.027 86.697 25.4545ZM83.8909 25.4545C83.8909 24.5298 83.7524 23.75 83.4754 23.1151C83.2027 22.4801 82.817 21.9986 82.3184 21.6705C81.8199 21.3423 81.2361 21.1783 80.567 21.1783C79.898 21.1783 79.3142 21.3423 78.8156 21.6705C78.317 21.9986 77.9292 22.4801 77.6522 23.1151C77.3795 23.75 77.2432 24.5298 77.2432 25.4545C77.2432 26.3793 77.3795 27.1591 77.6522 27.794C77.9292 28.429 78.317 28.9105 78.8156 29.2386C79.3142 29.5668 79.898 29.7308 80.567 29.7308C81.2361 29.7308 81.8199 29.5668 82.3184 29.2386C82.817 28.9105 83.2027 28.429 83.4754 27.794C83.7524 27.1591 83.8909 26.3793 83.8909 25.4545ZM92.8479 32H88.2072V18.9091H92.8862C94.203 18.9091 95.3365 19.1712 96.2868 19.6953C97.2371 20.2152 97.9679 20.9631 98.4793 21.9389C98.9949 22.9148 99.2527 24.0824 99.2527 25.4418C99.2527 26.8054 98.9949 27.9773 98.4793 28.9574C97.9679 29.9375 97.2328 30.6896 96.274 31.2138C95.3195 31.7379 94.1774 32 92.8479 32ZM90.975 29.6286H92.7328C93.551 29.6286 94.2392 29.4837 94.7974 29.1939C95.3599 28.8999 95.7818 28.446 96.0631 27.8324C96.3486 27.2145 96.4913 26.4176 96.4913 25.4418C96.4913 24.4744 96.3486 23.6839 96.0631 23.0703C95.7818 22.4567 95.3621 22.005 94.8038 21.7152C94.2456 21.4254 93.5574 21.2805 92.7392 21.2805H90.975V29.6286ZM102.994 18.9091V20.2898C102.994 20.6818 102.917 21.0824 102.764 21.4915C102.615 21.8963 102.414 22.2798 102.163 22.642C101.911 23 101.637 23.3047 101.338 23.5561L100.137 22.8466C100.35 22.5099 100.537 22.1371 100.699 21.728C100.865 21.3189 100.948 20.8437 100.948 20.3026V18.9091H102.994ZM111.42 22.674C111.369 22.1584 111.15 21.7578 110.762 21.4723C110.374 21.1868 109.848 21.044 109.183 21.044C108.731 21.044 108.35 21.108 108.039 21.2358C107.728 21.3594 107.489 21.532 107.323 21.7536C107.161 21.9751 107.08 22.2266 107.08 22.5078C107.071 22.7422 107.12 22.9467 107.227 23.1214C107.338 23.2962 107.489 23.4474 107.681 23.5753C107.873 23.6989 108.094 23.8075 108.346 23.9013C108.597 23.9908 108.866 24.0675 109.151 24.1314L110.327 24.4126C110.898 24.5405 111.422 24.7109 111.9 24.924C112.377 25.1371 112.79 25.3991 113.14 25.7102C113.489 26.0213 113.76 26.3878 113.951 26.8097C114.147 27.2315 114.248 27.7152 114.252 28.2607C114.248 29.0618 114.043 29.7564 113.638 30.3445C113.238 30.9283 112.658 31.3821 111.9 31.706C111.145 32.0256 110.236 32.1854 109.17 32.1854C108.113 32.1854 107.193 32.0234 106.409 31.6996C105.629 31.3757 105.02 30.8963 104.581 30.2614C104.146 29.6222 103.918 28.8317 103.897 27.8899H106.575C106.605 28.3288 106.731 28.6953 106.952 28.9893C107.178 29.2791 107.478 29.4986 107.853 29.6477C108.233 29.7926 108.661 29.8651 109.138 29.8651C109.607 29.8651 110.014 29.7969 110.359 29.6605C110.709 29.5241 110.979 29.3345 111.171 29.0916C111.363 28.8487 111.459 28.5696 111.459 28.2543C111.459 27.9602 111.371 27.7131 111.196 27.5128C111.026 27.3125 110.775 27.142 110.442 27.0014C110.114 26.8608 109.711 26.733 109.234 26.6179L107.809 26.2599C106.705 25.9915 105.834 25.5717 105.194 25.0007C104.555 24.4297 104.238 23.6605 104.242 22.6932C104.238 21.9006 104.449 21.2081 104.875 20.6158C105.305 20.0234 105.895 19.5611 106.645 19.2287C107.395 18.8963 108.248 18.7301 109.202 18.7301C110.174 18.7301 111.022 18.8963 111.746 19.2287C112.475 19.5611 113.042 20.0234 113.446 20.6158C113.851 21.2081 114.06 21.8942 114.073 22.674H111.42ZM121.272 32H118.694V24.7273H121.293C122.025 24.7273 122.655 24.8729 123.183 25.1641C123.71 25.4529 124.116 25.8684 124.401 26.4105C124.687 26.9527 124.83 27.6013 124.83 28.3565C124.83 29.1141 124.687 29.7652 124.401 30.3097C124.116 30.8542 123.708 31.272 123.175 31.5632C122.645 31.8544 122.011 32 121.272 32ZM120.232 30.6825H121.208C121.663 30.6825 122.045 30.602 122.355 30.4411C122.668 30.2777 122.902 30.0256 123.058 29.6847C123.217 29.3414 123.296 28.8987 123.296 28.3565C123.296 27.8191 123.217 27.38 123.058 27.0391C122.902 26.6982 122.669 26.4472 122.359 26.2862C122.049 26.1252 121.666 26.0447 121.212 26.0447H120.232V30.6825ZM125.669 32V24.7273H130.57V25.995H127.207V27.728H130.318V28.9957H127.207V30.7322H130.584V32H125.669ZM131.492 32V24.7273H133.03V30.7322H136.148V32H131.492ZM138.404 24.7273V32H136.866V24.7273H138.404ZM144.191 27.0781C144.142 26.9053 144.072 26.7526 143.982 26.62C143.892 26.4851 143.782 26.3714 143.652 26.2791C143.524 26.1844 143.377 26.1122 143.211 26.0625C143.048 26.0128 142.867 25.9879 142.668 25.9879C142.296 25.9879 141.97 26.0803 141.688 26.2649C141.408 26.4496 141.191 26.7183 141.034 27.071C140.878 27.4214 140.8 27.8499 140.8 28.3565C140.8 28.8632 140.877 29.294 141.031 29.6491C141.185 30.0043 141.403 30.2753 141.684 30.4624C141.966 30.647 142.299 30.7393 142.682 30.7393C143.03 30.7393 143.327 30.6778 143.573 30.5547C143.822 30.4292 144.011 30.2528 144.142 30.0256C144.274 29.7983 144.34 29.5296 144.34 29.2195L144.653 29.2656H142.778V28.108H145.821V29.0241C145.821 29.6634 145.686 30.2126 145.416 30.6719C145.147 31.1288 144.775 31.4815 144.301 31.7301C143.828 31.9763 143.286 32.0994 142.675 32.0994C141.993 32.0994 141.394 31.9491 140.878 31.6484C140.362 31.3454 139.96 30.9157 139.671 30.3594C139.384 29.8007 139.241 29.1378 139.241 28.3707C139.241 27.7812 139.326 27.2557 139.497 26.794C139.67 26.33 139.911 25.937 140.221 25.6151C140.531 25.2931 140.892 25.0481 141.304 24.88C141.716 24.7119 142.162 24.6278 142.643 24.6278C143.055 24.6278 143.438 24.6882 143.794 24.8089C144.149 24.9273 144.464 25.0954 144.738 25.3132C145.015 25.531 145.241 25.7902 145.416 26.0909C145.592 26.3892 145.704 26.7183 145.754 27.0781H144.191ZM146.676 32V24.7273H148.214V27.728H151.335V24.7273H152.87V32H151.335V28.9957H148.214V32H146.676ZM153.56 25.995V24.7273H159.533V25.995H157.307V32H155.787V25.995H153.56Z" fill="white"/>
</svg>
